<svg class="svg-canvas" viewBox="0 0 800 600" width="1600" height="1200" preserveAspectRatio="none" version="1.1" xmlns="http://www.w3.org/2000/svg" xmlns:xlink="http://www.w3.org/1999/xlink">
      <!--滤镜-->
      <defs></defs>
    
      <!-- 背景 -->
      <g id="background">
          <rect x="0" y="0" fill="rgb(232, 232, 232)" width="800" height="600"></rect>
          
        </g>
    
      <!--元素-->
      
              <g id="shape_eg4wiaeK6y" ref="shape_eg4wiaeK6y" key="shape_eg4wiaeK6y" mask="">
                <g transform="translate(119.99999999999994,252.9832757313213) rotate(0,40.10776339894291,47.0167242686787) scale(1,1)" style="opacity: 1;mix-blend-mode: undefined;" filter="">
                  <!--普通元素-->
                  <svg id="svg" version="1.1" width="80.21552679788581" height="94.0334485373574" viewBox="101.71256989863181 30.360133505365408 560.1486877984149 656.6398664946346" xmlns="http://www.w3.org/2000/svg" xmlns:xlink="http://www.w3.org/1999/xlink" class="style-removed" preserveAspectRatio="none" data-parent="shape_eg4wiaeK6y"><path d="M450.000 33.364 C 445.325 35.227,436.550 38.875,430.500 41.471 C 424.450 44.067,413.875 48.443,407.000 51.195 C 400.125 53.947,390.675 57.771,386.000 59.693 C 381.325 61.615,374.350 64.456,370.500 66.007 C 366.650 67.558,360.350 70.272,356.500 72.038 C 352.650 73.804,342.750 77.940,334.500 81.228 C 326.250 84.517,307.125 92.395,292.000 98.736 C 276.875 105.077,257.525 113.085,249.000 116.531 C 200.519 136.131,154.978 154.922,146.659 158.760 C 139.069 162.261,136.304 165.145,134.463 171.480 C 133.052 176.332,133.091 177.087,135.088 183.577 C 137.002 189.798,143.984 208.103,148.981 220.000 C 157.497 240.276,167.769 262.814,170.285 266.744 C 171.960 269.360,175.769 276.900,178.749 283.500 C 185.937 299.418,195.156 319.896,203.960 339.500 C 207.911 348.300,212.422 358.200,213.983 361.500 C 219.895 373.995,224.282 383.654,226.018 388.000 C 227.007 390.475,229.704 396.550,232.012 401.500 C 240.055 418.756,261.200 465.530,262.753 469.500 C 263.613 471.700,264.648 473.950,265.053 474.500 C 265.458 475.050,269.617 484.050,274.296 494.500 C 278.974 504.950,285.140 518.450,287.998 524.500 C 290.857 530.550,295.239 540.225,297.737 546.000 L 302.279 556.500 301.083 565.000 C 300.418 569.727,297.615 580.158,294.769 588.500 C 289.872 602.847,289.646 603.979,289.575 614.500 C 289.500 625.463,289.514 625.530,293.750 634.269 C 296.088 639.091,298.000 643.411,298.000 643.869 C 298.000 644.326,299.332 646.539,300.960 648.786 C 304.230 653.300,307.627 654.664,322.601 657.478 C 327.056 658.315,334.706 660.080,339.601 661.399 C 344.495 662.719,352.775 664.542,358.000 665.452 C 363.225 666.361,371.906 668.206,377.290 669.553 C 392.143 673.266,394.991 672.943,403.291 666.607 C 405.891 664.623,408.238 663.000,408.509 663.000 C 408.779 663.000,409.000 667.072,409.000 672.050 C 409.000 681.006,410.640 687.000,413.091 687.000 C 418.049 687.000,421.061 679.569,424.565 658.692 C 425.968 650.336,428.184 640.125,429.489 636.000 C 436.304 614.468,442.047 591.904,442.113 586.397 C 442.232 576.666,438.646 568.682,428.015 555.000 C 425.237 551.425,421.735 546.025,420.232 543.000 C 417.795 538.094,417.500 536.400,417.500 527.316 L 417.500 517.131 424.345 503.553 C 428.109 496.086,435.986 481.994,441.849 472.238 C 447.712 462.482,453.842 451.688,455.470 448.250 C 457.099 444.813,458.733 442.000,459.101 442.000 C 460.375 442.000,462.745 446.561,468.455 460.001 C 471.609 467.425,479.149 484.750,485.211 498.500 C 500.100 532.277,501.888 536.395,508.437 552.000 C 514.525 566.507,517.498 573.384,523.782 587.500 C 525.986 592.450,528.576 598.975,529.539 602.000 C 531.919 609.482,535.542 617.599,536.868 618.418 C 540.030 620.373,544.737 613.268,546.839 603.368 C 547.438 600.546,548.003 592.378,548.094 585.218 C 548.185 578.057,548.578 571.683,548.968 571.053 C 549.357 570.422,550.931 573.765,552.465 578.481 C 556.320 590.331,560.814 593.879,564.829 588.241 C 567.410 584.616,568.716 579.529,570.460 566.300 C 571.251 560.304,572.360 554.183,572.924 552.699 C 573.974 549.939,575.412 549.240,576.481 550.969 C 576.810 551.502,577.493 563.872,577.999 578.458 C 578.917 604.985,579.819 611.968,582.748 615.250 C 584.912 617.675,586.666 617.439,588.617 614.462 C 591.952 609.372,593.073 600.813,593.982 573.500 C 594.917 545.403,595.787 539.194,599.940 531.000 C 602.529 525.891,606.772 521.000,608.615 521.000 C 610.957 521.000,614.033 526.319,616.648 534.892 C 619.979 545.814,621.502 548.197,624.899 547.802 C 629.449 547.274,631.947 540.429,633.087 525.367 C 634.147 511.366,635.976 505.718,639.617 505.198 C 641.430 504.939,642.349 506.335,646.002 514.890 C 652.646 530.450,657.829 533.807,660.671 524.392 C 662.314 518.949,662.242 501.806,660.542 493.786 C 659.367 488.239,646.426 454.952,636.521 432.000 C 635.216 428.975,633.278 424.250,632.215 421.500 C 629.615 414.774,605.254 355.277,599.459 341.500 C 596.914 335.450,591.242 321.558,586.853 310.629 C 582.465 299.700,576.243 284.625,573.028 277.129 C 569.812 269.633,565.160 258.550,562.690 252.500 C 560.220 246.450,554.304 232.050,549.544 220.500 C 530.649 174.651,528.875 169.968,529.576 167.761 C 529.952 166.575,532.441 163.299,535.107 160.481 C 545.912 149.055,546.482 138.033,537.504 114.111 C 531.570 98.302,525.993 85.773,521.430 78.000 C 514.422 66.062,504.125 58.200,494.668 57.568 C 492.238 57.405,489.745 56.961,489.129 56.580 C 488.513 56.199,486.410 52.425,484.455 48.194 C 478.853 36.061,473.496 31.467,463.836 30.508 C 459.352 30.062,457.144 30.518,450.000 33.364 M467.955 46.976 C 469.609 47.861,491.225 96.719,496.159 110.725 C 500.102 121.915,499.663 122.369,476.000 131.585 C 462.038 137.023,422.290 153.609,416.500 156.413 C 413.750 157.745,407.225 160.501,402.000 162.537 C 396.775 164.574,386.200 168.944,378.500 172.250 C 370.800 175.555,358.650 180.628,351.500 183.523 C 339.768 188.272,322.917 195.241,308.000 201.513 C 304.975 202.784,298.675 205.378,294.000 207.277 C 259.289 221.375,207.610 242.611,198.500 246.520 C 180.119 254.408,178.037 254.002,173.427 241.634 C 171.965 237.710,166.611 224.600,161.529 212.500 C 149.614 184.131,149.000 182.496,149.000 179.154 C 149.000 175.240,152.425 172.395,161.121 169.087 C 165.179 167.543,175.925 163.234,185.000 159.511 C 194.075 155.788,208.025 150.065,216.000 146.792 C 237.677 137.898,266.274 126.265,277.000 121.977 C 282.225 119.888,299.775 112.679,316.000 105.958 C 332.225 99.236,355.850 89.478,368.500 84.273 C 381.150 79.068,398.025 72.124,406.000 68.842 C 413.975 65.560,425.000 61.134,430.500 59.007 C 436.000 56.880,445.225 53.114,451.000 50.638 C 461.895 45.968,464.870 45.325,467.955 46.976 M504.770 81.255 C 507.038 83.670,512.577 95.170,522.086 117.206 C 527.579 129.935,528.000 131.451,528.000 138.489 C 528.000 147.563,525.833 152.530,518.138 161.099 C 513.728 166.009,510.180 168.271,489.305 179.485 C 447.728 201.821,438.749 206.615,428.000 212.222 C 386.173 234.040,371.000 242.708,371.000 244.785 C 371.000 246.460,386.496 281.597,399.982 310.500 C 426.333 366.978,437.005 391.333,436.997 394.977 C 436.995 395.922,434.321 397.596,429.951 399.388 C 414.888 405.566,403.967 420.260,395.679 445.500 C 394.234 449.900,390.367 464.179,387.086 477.231 C 380.378 503.914,377.066 512.029,369.998 519.098 C 364.323 524.772,359.637 527.283,349.808 529.917 C 338.936 532.831,330.385 537.034,322.557 543.312 C 318.739 546.374,315.218 548.635,314.735 548.336 C 313.813 547.767,313.003 546.055,296.826 510.500 C 291.321 498.400,285.245 485.125,283.325 481.000 C 281.405 476.875,275.999 464.950,271.312 454.500 C 263.541 437.172,257.751 424.294,252.142 411.858 C 250.991 409.305,247.166 400.755,243.642 392.858 C 235.755 375.180,212.790 324.894,206.716 312.000 C 196.666 290.666,189.896 273.699,190.198 270.603 C 190.462 267.886,191.309 267.093,197.000 264.233 C 200.575 262.436,210.250 258.245,218.500 254.919 C 226.750 251.592,234.400 248.472,235.500 247.985 C 241.539 245.312,258.958 238.189,275.594 231.591 C 285.992 227.467,301.025 221.324,309.000 217.941 C 335.754 206.592,335.124 206.802,337.078 208.570 C 338.026 209.429,340.291 214.264,342.111 219.315 C 345.605 229.015,348.507 233.000,352.076 233.000 C 353.267 233.000,358.125 230.801,362.871 228.114 C 367.617 225.426,381.175 218.169,393.000 211.987 C 404.825 205.804,419.225 198.165,425.000 195.010 C 430.775 191.854,444.725 184.411,456.000 178.468 C 486.285 162.505,510.182 149.150,512.879 146.679 C 515.942 143.874,518.000 138.997,518.000 134.547 C 518.000 128.959,513.890 115.779,504.589 91.542 C 502.065 84.965,500.000 79.453,500.000 79.292 C 500.000 78.154,503.027 79.400,504.770 81.255 M110.500 364.659 C 108.850 364.931,107.078 365.563,106.563 366.064 C 105.032 367.551,109.862 371.807,115.415 373.863 C 121.892 376.262,143.377 381.172,161.822 384.469 C 169.699 385.877,182.211 388.598,189.626 390.515 C 210.682 395.958,211.875 395.245,196.750 386.258 C 180.243 376.451,166.202 371.130,145.938 367.002 C 135.778 364.932,116.544 363.661,110.500 364.659 M446.365 414.073 C 449.280 416.366,449.545 418.360,447.933 425.877 C 446.546 432.342,443.204 436.000,438.683 436.000 C 433.472 436.000,430.000 432.752,430.000 427.878 C 430.000 420.287,435.624 413.529,443.115 412.116 C 443.453 412.052,444.916 412.933,446.365 414.073 M160.500 422.047 C 134.801 423.642,111.670 430.137,103.034 438.183 C 100.503 440.541,101.707 443.558,105.797 445.113 C 108.986 446.326,113.801 445.510,133.000 440.505 C 149.063 436.317,158.191 434.786,183.500 432.037 C 193.950 430.902,203.850 429.582,205.500 429.105 L 208.500 428.237 204.954 426.690 C 195.885 422.734,178.569 420.926,160.500 422.047 M201.000 463.476 C 177.097 469.352,154.437 479.975,138.685 492.690 C 131.675 498.349,129.289 501.705,130.337 504.436 C 131.297 506.937,133.321 506.351,145.247 500.124 C 151.436 496.892,167.128 488.837,180.118 482.225 C 203.350 470.398,213.692 464.225,213.303 462.417 C 212.970 460.870,210.865 461.051,201.000 463.476 M218.897 489.871 C 191.362 505.183,174.996 518.597,167.280 532.176 C 158.326 547.932,161.113 549.199,176.000 536.140 C 207.632 508.392,226.695 490.928,230.158 486.526 C 233.273 482.566,230.612 483.356,218.897 489.871 M236.500 514.236 C 221.452 524.066,212.804 534.537,207.857 548.916 C 204.279 559.314,208.854 557.680,219.798 544.651 C 228.731 534.015,243.117 516.169,245.290 513.027 C 249.250 507.302,246.546 507.674,236.500 514.236 M355.917 559.047 C 391.038 565.340,417.914 570.904,421.067 572.535 C 425.473 574.813,426.346 577.361,425.680 586.000 C 424.552 600.624,423.240 601.704,409.906 598.989 C 404.732 597.936,393.525 595.927,385.000 594.524 C 371.312 592.273,335.018 585.743,320.186 582.863 C 317.264 582.296,314.647 581.244,314.371 580.525 C 314.095 579.806,315.050 575.348,316.492 570.619 C 319.798 559.779,323.789 555.000,329.535 555.000 C 331.625 555.000,343.497 556.821,355.917 559.047 M327.131 602.012 C 334.484 603.119,355.125 606.686,373.000 609.938 C 390.875 613.190,407.750 616.167,410.500 616.553 C 417.654 617.558,419.298 618.574,417.926 621.139 C 417.034 622.806,416.135 623.100,413.163 622.698 C 405.185 621.617,394.086 619.917,386.000 618.535 C 381.325 617.737,370.075 615.909,361.000 614.473 C 351.925 613.038,338.650 610.811,331.500 609.525 C 324.350 608.239,315.687 606.875,312.248 606.495 C 305.523 605.751,304.522 605.082,305.503 601.991 C 306.326 599.398,309.785 599.401,327.131 602.012 M323.922 623.564 C 328.640 624.424,340.600 626.652,350.500 628.515 C 360.400 630.378,375.405 633.049,383.845 634.451 C 392.285 635.853,399.598 637.251,400.095 637.559 C 402.344 638.948,398.965 648.126,394.597 652.494 C 391.426 655.665,388.922 655.666,374.714 652.505 C 368.546 651.133,353.825 647.972,342.000 645.480 C 330.175 642.989,319.045 640.479,317.266 639.903 C 311.088 637.902,308.398 631.343,310.975 624.565 C 312.120 621.555,312.671 621.513,323.922 623.564 " stroke="none" fill="#4311A4" fill-rule="evenodd" stroke-width="0"></path></svg>
                </g>
              </g>
              <g id="shape_4mSGxH3aSE" ref="shape_4mSGxH3aSE" key="shape_4mSGxH3aSE" mask="">
                <g transform="translate(25.15184229999329,73.9414802245339) rotate(0,421.64054833210673,226.0585197754661) scale(1,1)" style="opacity: 1;mix-blend-mode: undefined;" filter="">
                  <!--普通元素-->
                  <svg xmlns="http://www.w3.org/2000/svg" version="1.1" xmlns:xlink="http://www.w3.org/1999/xlink" width="843.2810966642135" height="452.1170395509322" viewBox="0 0 1187.8593541824816 636.8593541824816" data-ligature="true" data-parent="shape_4mSGxH3aSE"><g data-role="text" data-width="656.2554687500001" data-height="106" transform="translate(265.4296770912408, 265.4296770912408)"><path d="M30.63 0L6.48 0L6.48-63.34L30.24-63.34Q37.50-63.34 41.89-61.41Q46.27-59.49 48.75-55.49Q51.24-51.50 51.24-47.13L51.24-47.13Q51.24-43.07 49.04-39.49Q46.83-35.90 42.38-33.70L42.38-33.70Q48.13-32.01 51.22-27.95Q54.31-23.89 54.31-18.36L54.31-18.36Q54.31-13.91 52.43-10.09Q50.55-6.26 47.78-4.19Q45.02-2.12 40.85-1.06Q36.68 0 30.63 0L30.63 0ZM14.86-55.86L14.86-36.72L28.56-36.72Q34.13-36.72 36.55-37.46L36.55-37.46Q39.75-38.41 41.37-40.61Q42.99-42.81 42.99-46.14L42.99-46.14Q42.99-49.29 41.48-51.69Q39.96-54.09 37.15-54.98Q34.35-55.86 27.52-55.86L27.52-55.86L14.86-55.86ZM14.86-29.25L14.86-7.47L30.63-7.47Q34.69-7.47 36.33-7.78L36.33-7.78Q39.23-8.29 41.17-9.50Q43.12-10.71 44.37-13.03Q45.62-15.34 45.62-18.36L45.62-18.36Q45.62-21.90 43.81-24.52Q41.99-27.13 38.77-28.19Q35.56-29.25 29.51-29.25L29.51-29.25L14.86-29.25Z" transform="translate(0 83) " fill="#4311a4" stroke="#4311a4" stroke-width="2.949" data-glyph-w="59.015468750000004" data-glyph-h="98.84875000000001" data-glyph-ascender="80.09859375" data-glyph-descender="-18.75015625" data-kerning="0"></path><path d="M13.52 0L5.75 0L5.75-45.88L12.74-45.88L12.74-38.93Q15.42-43.81 17.69-45.36Q19.96-46.92 22.68-46.92L22.68-46.92Q26.61-46.92 30.67-44.41L30.67-44.41L28.00-37.20Q25.14-38.88 22.29-38.88L22.29-38.88Q19.74-38.88 17.71-37.35Q15.68-35.82 14.82-33.09L14.82-33.09Q13.52-28.95 13.52-24.02L13.52-24.02L13.52 0Z" transform="translate(59.015468750000004 83) " fill="#4311a4" stroke="#4311a4" stroke-width="2.949" data-glyph-w="29.46453125" data-glyph-h="98.84875000000001" data-glyph-ascender="80.09859375" data-glyph-descender="-18.75015625" data-kerning="0"></path><path d="M2.94-22.94L2.94-22.94Q2.94-35.69 10.02-41.82L10.02-41.82Q15.94-46.92 24.45-46.92L24.45-46.92Q33.91-46.92 39.92-40.72Q45.92-34.52 45.92-23.59L45.92-23.59Q45.92-14.73 43.27-9.66Q40.61-4.58 35.53-1.77Q30.46 1.04 24.45 1.04L24.45 1.04Q14.82 1.04 8.88-5.14Q2.94-11.32 2.94-22.94ZM10.93-22.94L10.93-22.94Q10.93-14.13 14.78-9.74Q18.62-5.36 24.45-5.36L24.45-5.36Q30.24-5.36 34.09-9.76Q37.93-14.17 37.93-23.20L37.93-23.20Q37.93-31.71 34.07-36.10Q30.20-40.48 24.45-40.48L24.45-40.48Q18.62-40.48 14.78-36.12Q10.93-31.75 10.93-22.94Z" transform="translate(88.48 83) " fill="#4311a4" stroke="#4311a4" stroke-width="2.949" data-glyph-w="49.208359375" data-glyph-h="98.84875000000001" data-glyph-ascender="80.09859375" data-glyph-descender="-18.75015625" data-kerning="0"></path><path d="M22.42 0L14.30 0L0.26-45.88L8.29-45.88L15.60-19.40L18.32-9.55Q18.49-10.28 20.69-19.01L20.69-19.01L28.00-45.88L35.99-45.88L42.86-19.27L45.15-10.50L47.78-19.36L55.65-45.88L63.21-45.88L48.86 0L40.78 0L33.48-27.48L31.71-35.30L22.42 0Z" transform="translate(137.688359375 83) " fill="#4311a4" stroke="#4311a4" stroke-width="2.949" data-glyph-w="63.897421875000006" data-glyph-h="98.84875000000001" data-glyph-ascender="80.09859375" data-glyph-descender="-18.75015625" data-kerning="0"></path><path d="M13.61 0L5.83 0L5.83-45.88L12.83-45.88L12.83-39.36Q17.89-46.92 27.43-46.92L27.43-46.92Q31.58-46.92 35.06-45.43Q38.54-43.94 40.27-41.52Q41.99-39.10 42.68-35.77L42.68-35.77Q43.12-33.61 43.12-28.21L43.12-28.21L43.12 0L35.34 0L35.34-27.91Q35.34-32.66 34.43-35.02Q33.53-37.37 31.21-38.77Q28.90-40.18 25.79-40.18L25.79-40.18Q20.82-40.18 17.22-37.03Q13.61-33.87 13.61-25.06L13.61-25.06L13.61 0Z" transform="translate(201.58578125000003 83) " fill="#4311a4" stroke="#4311a4" stroke-width="2.949" data-glyph-w="49.208359375" data-glyph-h="98.84875000000001" data-glyph-ascender="80.09859375" data-glyph-descender="-18.75015625" data-kerning="0"></path><path d="M10.67-40.91L5.88-40.91L3.89-52.75L3.89-63.34L12.74-63.34L12.74-52.75L10.67-40.91Z" transform="translate(250.794140625 83) " fill="#4311a4" stroke="#4311a4" stroke-width="2.949" data-glyph-w="16.892421875" data-glyph-h="98.84875000000001" data-glyph-ascender="80.09859375" data-glyph-descender="-18.75015625" data-kerning="0"></path><path d="M2.72-13.70L2.72-13.70L10.41-14.91Q11.06-10.28 14.02-7.82Q16.98-5.36 22.29-5.36L22.29-5.36Q27.65-5.36 30.24-7.54Q32.83-9.72 32.83-12.66L32.83-12.66Q32.83-15.29 30.54-16.81L30.54-16.81Q28.95-17.84 22.60-19.44L22.60-19.44Q14.04-21.60 10.74-23.18Q7.43-24.76 5.72-27.54Q4.02-30.33 4.02-33.70L4.02-33.70Q4.02-36.77 5.42-39.38Q6.83-41.99 9.25-43.72L9.25-43.72Q11.06-45.06 14.19-45.99Q17.32-46.92 20.91-46.92L20.91-46.92Q26.31-46.92 30.39-45.36Q34.48-43.81 36.42-41.15Q38.36-38.49 39.10-34.04L39.10-34.04L31.50-33.01Q30.98-36.55 28.49-38.54Q26.01-40.52 21.47-40.52L21.47-40.52Q16.11-40.52 13.83-38.75Q11.54-36.98 11.54-34.61L11.54-34.61Q11.54-33.09 12.49-31.88L12.49-31.88Q13.44-30.63 15.47-29.81L15.47-29.81Q16.63-29.38 22.34-27.82L22.34-27.82Q30.59-25.62 33.85-24.22Q37.11-22.81 38.97-20.13Q40.83-17.45 40.83-13.48L40.83-13.48Q40.83-9.59 38.56-6.16Q36.29-2.72 32.01-0.84Q27.74 1.04 22.34 1.04L22.34 1.04Q13.39 1.04 8.71-2.68Q4.02-6.39 2.72-13.70Z" transform="translate(267.68656250000004 83) " fill="#4311a4" stroke="#4311a4" stroke-width="2.949" data-glyph-w="44.24" data-glyph-h="98.84875000000001" data-glyph-ascender="80.09859375" data-glyph-descender="-18.75015625" data-kerning="0"></path><path d="M0,0Z" transform="translate(311.92656250000005 83) " fill="#4311a4" stroke="#4311a4" stroke-width="2.949" data-glyph-w="24.582578125" data-glyph-h="98.84875000000001" data-glyph-ascender="80.09859375" data-glyph-descender="-18.75015625" data-kerning="0"></path><path d="M15.21 0L6.83 0L6.83-63.34L30.72-63.34Q37.03-63.34 40.35-62.73L40.35-62.73Q45.02-61.95 48.17-59.77Q51.33-57.59 53.25-53.66Q55.17-49.73 55.17-45.02L55.17-45.02Q55.17-36.94 50.03-31.34Q44.89-25.75 31.45-25.75L31.45-25.75L15.21-25.75L15.21 0ZM15.21-55.86L15.21-33.22L31.58-33.22Q39.70-33.22 43.12-36.25Q46.53-39.27 46.53-44.76L46.53-44.76Q46.53-48.73 44.52-51.56Q42.51-54.39 39.23-55.30L39.23-55.30Q37.11-55.86 31.41-55.86L31.41-55.86L15.21-55.86Z" transform="translate(336.50914062500004 83) " fill="#4311a4" stroke="#4311a4" stroke-width="2.949" data-glyph-w="59.015468750000004" data-glyph-h="98.84875000000001" data-glyph-ascender="80.09859375" data-glyph-descender="-18.75015625" data-kerning="0"></path><path d="M35.77-5.66L35.77-5.66Q31.45-1.99 27.46-0.48Q23.46 1.04 18.88 1.04L18.88 1.04Q11.32 1.04 7.26-2.66Q3.20-6.35 3.20-12.10L3.20-12.10Q3.20-15.47 4.73-18.25Q6.26-21.04 8.75-22.72Q11.23-24.41 14.34-25.27L14.34-25.27Q16.63-25.88 21.26-26.44L21.26-26.44Q30.67-27.56 35.12-29.12L35.12-29.12Q35.17-30.72 35.17-31.15L35.17-31.15Q35.17-35.90 32.96-37.85L32.96-37.85Q29.98-40.48 24.11-40.48L24.11-40.48Q18.62-40.48 16.01-38.56Q13.39-36.64 12.14-31.75L12.14-31.75L4.54-32.79Q5.57-37.67 7.95-40.68Q10.33-43.68 14.82-45.30Q19.31-46.92 25.23-46.92L25.23-46.92Q31.11-46.92 34.78-45.54Q38.45-44.15 40.18-42.06Q41.91-39.96 42.60-36.77L42.60-36.77Q42.99-34.78 42.99-29.59L42.99-29.59L42.99-19.23Q42.99-8.38 43.48-5.51Q43.98-2.64 45.45 0L45.45 0L37.33 0Q36.12-2.42 35.77-5.66ZM35.12-20.18L35.12-23.03Q30.89-21.30 22.42-20.09L22.42-20.09Q17.63-19.40 15.64-18.53Q13.65-17.67 12.57-16.01Q11.49-14.34 11.49-12.31L11.49-12.31Q11.49-9.20 13.85-7.13Q16.20-5.05 20.74-5.05L20.74-5.05Q25.23-5.05 28.73-7.02Q32.23-8.99 33.87-12.40L33.87-12.40Q35.12-15.03 35.12-20.18L35.12-20.18Z" transform="translate(395.52460937500007 83) " fill="#4311a4" stroke="#4311a4" stroke-width="2.949" data-glyph-w="49.208359375" data-glyph-h="98.84875000000001" data-glyph-ascender="80.09859375" data-glyph-descender="-18.75015625" data-kerning="0"></path><path d="M13.65-54.39L5.88-54.39L5.88-63.34L13.65-63.34L13.65-54.39ZM13.65 0L5.88 0L5.88-45.88L13.65-45.88L13.65 0Z" transform="translate(444.73296875000005 83) " fill="#4311a4" stroke="#4311a4" stroke-width="2.949" data-glyph-w="19.657421875" data-glyph-h="98.84875000000001" data-glyph-ascender="80.09859375" data-glyph-descender="-18.75015625" data-kerning="0"></path><path d="M13.61 0L5.83 0L5.83-45.88L12.83-45.88L12.83-39.36Q17.89-46.92 27.43-46.92L27.43-46.92Q31.58-46.92 35.06-45.43Q38.54-43.94 40.27-41.52Q41.99-39.10 42.68-35.77L42.68-35.77Q43.12-33.61 43.12-28.21L43.12-28.21L43.12 0L35.34 0L35.34-27.91Q35.34-32.66 34.43-35.02Q33.53-37.37 31.21-38.77Q28.90-40.18 25.79-40.18L25.79-40.18Q20.82-40.18 17.22-37.03Q13.61-33.87 13.61-25.06L13.61-25.06L13.61 0Z" transform="translate(464.39039062500007 83) " fill="#4311a4" stroke="#4311a4" stroke-width="2.949" data-glyph-w="49.208359375" data-glyph-h="98.84875000000001" data-glyph-ascender="80.09859375" data-glyph-descender="-18.75015625" data-kerning="0"></path><path d="M22.81-6.96L22.81-6.96L23.93-0.09Q20.65 0.60 18.06 0.60L18.06 0.60Q13.83 0.60 11.49-0.73Q9.16-2.07 8.21-4.26Q7.26-6.44 7.26-13.44L7.26-13.44L7.26-39.83L1.56-39.83L1.56-45.88L7.26-45.88L7.26-57.24L14.99-61.91L14.99-45.88L22.81-45.88L22.81-39.83L14.99-39.83L14.99-13.00Q14.99-9.68 15.40-8.73Q15.81-7.78 16.74-7.21Q17.67-6.65 19.40-6.65L19.40-6.65Q20.69-6.65 22.81-6.96Z" transform="translate(513.5987500000001 83) " fill="#4311a4" stroke="#4311a4" stroke-width="2.949" data-glyph-w="24.582578125" data-glyph-h="98.84875000000001" data-glyph-ascender="80.09859375" data-glyph-descender="-18.75015625" data-kerning="0"></path><path d="M13.65-54.39L5.88-54.39L5.88-63.34L13.65-63.34L13.65-54.39ZM13.65 0L5.88 0L5.88-45.88L13.65-45.88L13.65 0Z" transform="translate(538.1813281250002 83) " fill="#4311a4" stroke="#4311a4" stroke-width="2.949" data-glyph-w="19.657421875" data-glyph-h="98.84875000000001" data-glyph-ascender="80.09859375" data-glyph-descender="-18.75015625" data-kerning="0"></path><path d="M13.61 0L5.83 0L5.83-45.88L12.83-45.88L12.83-39.36Q17.89-46.92 27.43-46.92L27.43-46.92Q31.58-46.92 35.06-45.43Q38.54-43.94 40.27-41.52Q41.99-39.10 42.68-35.77L42.68-35.77Q43.12-33.61 43.12-28.21L43.12-28.21L43.12 0L35.34 0L35.34-27.91Q35.34-32.66 34.43-35.02Q33.53-37.37 31.21-38.77Q28.90-40.18 25.79-40.18L25.79-40.18Q20.82-40.18 17.22-37.03Q13.61-33.87 13.61-25.06L13.61-25.06L13.61 0Z" transform="translate(557.8387500000001 83) " fill="#4311a4" stroke="#4311a4" stroke-width="2.949" data-glyph-w="49.208359375" data-glyph-h="98.84875000000001" data-glyph-ascender="80.09859375" data-glyph-descender="-18.75015625" data-kerning="0"></path><path d="M4.41 3.80L4.41 3.80L11.97 4.93Q12.44 8.42 14.60 10.02L14.60 10.02Q17.50 12.18 22.51 12.18L22.51 12.18Q27.91 12.18 30.85 10.02Q33.78 7.86 34.82 3.97L34.82 3.97Q35.43 1.60 35.38-6.01L35.38-6.01Q30.29 0 22.68 0L22.68 0Q13.22 0 8.04-6.83Q2.85-13.65 2.85-23.20L2.85-23.20Q2.85-29.77 5.23-35.32Q7.60-40.87 12.12-43.89Q16.63-46.92 22.72-46.92L22.72-46.92Q30.85-46.92 36.12-40.35L36.12-40.35L36.12-45.88L43.29-45.88L43.29-6.22Q43.29 4.49 41.11 8.96Q38.93 13.44 34.20 16.03Q29.46 18.62 22.55 18.62L22.55 18.62Q14.34 18.62 9.29 14.93Q4.23 11.23 4.41 3.80ZM10.84-23.76L10.84-23.76Q10.84-14.73 14.43-10.58Q18.02-6.44 23.42-6.44L23.42-6.44Q28.77-6.44 32.40-10.56Q36.03-14.69 36.03-23.50L36.03-23.50Q36.03-31.93 32.29-36.20Q28.56-40.48 23.29-40.48L23.29-40.48Q18.10-40.48 14.47-36.27Q10.84-32.06 10.84-23.76Z" transform="translate(607.0471093750001 83) " fill="#4311a4" stroke="#4311a4" stroke-width="2.949" data-glyph-w="49.208359375" data-glyph-h="98.84875000000001" data-glyph-ascender="80.09859375" data-glyph-descender="-18.75015625" data-kerning="0"></path></g></svg>
                </g>
              </g>
    </svg>